<svg width="472" height="454" viewBox="0 0 472 454" fill="none" xmlns="http://www.w3.org/2000/svg">
<path fill-rule="evenodd" clip-rule="evenodd" d="M205.96 3.36712C176.662 11.5561 148.873 25.0881 114.96 47.6781C79.1347 71.5421 44.9457 102.94 30.1657 125.549C26.7177 130.825 25.6867 133.38 27.0087 133.38C29.1947 133.38 41.9447 123.179 53.8147 111.933C77.4017 89.5861 98.9367 72.6641 128.96 52.8821C153.447 36.7481 171.518 26.2361 191.46 16.5251C206.621 9.14314 219.46 1.90409 219.46 0.738092C219.46 -0.0659079 215.441 0.71712 205.96 3.36712ZM259.96 1.50012C258.31 2.02212 255.231 2.68013 253.118 2.96313C246.785 3.81113 229.848 9.74411 214.96 16.3311C142.305 48.4721 60.4587 107.508 22.1707 155.39C15.6197 163.582 9.98171 173.447 10.6707 175.512C11.1757 177.028 25.0047 167.549 33.4597 159.892C91.9237 106.946 188.604 39.5331 239.97 15.8961C260.354 6.51611 273.079 -2.64788 259.96 1.50012ZM286.96 9.86212C263.645 16.0441 232.659 31.3901 192.46 56.6611C122.06 100.919 54.2787 151.7 26.6837 180.859C12.2117 196.152 1.88872 210.38 2.64972 213.985C3.06772 215.969 15.0607 208.104 22.4597 200.992C32.1837 191.646 61.8457 167.557 84.9597 150.234C106.061 134.42 159.775 97.2881 197.96 72.1201C222.931 55.6611 270.736 26.7291 283.46 20.3741C290.926 16.6461 303.46 8.7251 303.46 7.7351C303.46 6.6661 294.807 7.78112 286.96 9.86212ZM317.865 21.8461C299.557 28.3941 258.242 49.2511 231.96 65.2131C203.882 82.2661 126.617 133.42 96.2107 155.086C57.5467 182.637 28.6367 208.551 8.86773 233.38C2.14273 241.826 0.0537206 245.831 1.25372 247.976C1.91672 249.161 3.26873 248.663 8.51373 245.297C12.0587 243.023 18.1097 238.59 21.9597 235.446C25.8097 232.302 35.2597 225.081 42.9597 219.399C50.6597 213.718 62.8097 204.478 69.9597 198.865C136.145 146.91 261.902 62.3531 314.46 34.4651C327.977 27.2931 338.771 20.2441 336.937 19.7881C331.151 18.3501 326.12 18.8931 317.865 21.8461ZM123.846 30.2361C117.734 33.4311 109.634 38.1151 105.846 40.6451C92.2337 49.7381 67.5167 70.7711 68.8627 72.1161C69.7667 73.0201 77.6257 67.8241 94.4597 55.1911C103.535 48.3811 116.468 39.0761 123.201 34.5131C140.975 22.4681 141.169 21.1811 123.846 30.2361ZM343.46 36.9701C328.741 42.2251 300.789 55.6761 284.239 65.4701C261.558 78.8911 217.418 108.058 158.96 148.25C112.69 180.063 74.5217 208.337 52.6927 226.969C37.0937 240.284 10.1507 266.525 7.23572 271.242C4.63772 275.445 4.03369 279.38 5.98669 279.38C7.75669 279.38 19.2877 271.295 33.1507 260.332C43.0577 252.498 98.6207 212.484 159.46 169.37C186.848 149.961 287.203 83.1631 314.96 65.8671C324.86 59.6971 337.01 52.4921 341.96 49.8551C358.573 41.0031 371.229 31.9001 364.461 33.6691C363.362 33.9571 362.21 33.7841 361.902 33.2861C360.828 31.5491 355.875 32.5381 343.46 36.9701ZM366.96 51.7371C347.464 60.0601 325.42 72.7661 283.365 99.9191C229.929 134.42 123.731 208.058 85.9957 236.775C62.6897 254.511 39.5727 274.422 20.0607 293.565C13.6817 299.824 12.3857 301.586 13.3277 302.721C13.9697 303.494 14.2137 304.859 13.8697 305.753C12.2937 309.861 17.4367 306.596 56.8437 278.469C112.945 238.426 206.317 172.91 239.302 150.444C252.864 141.206 280.812 121.858 301.409 107.447C322.006 93.0371 344.731 77.6291 351.909 73.2061C377.219 57.6141 381.055 55.1591 384.485 52.3601C386.389 50.8061 387.622 49.2091 387.226 48.8121C386.829 48.4151 384.357 47.9511 381.732 47.7791C377.907 47.5301 374.976 48.3151 366.96 51.7371ZM378.916 76.0231C341.847 96.8341 321.372 109.713 272.96 142.667C227.378 173.694 215.546 181.959 160.46 221.253C101.238 263.497 90.9797 271.076 66.9597 290.327C57.6097 297.821 45.6847 307.157 40.4597 311.075C25.7877 322.076 24.2487 324.069 25.3317 330.656C25.8877 334.031 111.087 277.55 197.079 216.798C217.494 202.375 245.844 182.584 260.079 172.817C302.825 143.488 313.993 135.693 335.96 119.847C347.51 111.516 365.51 98.9331 375.96 91.8861C398.32 76.8061 408.46 69.3591 408.46 68.0171C408.46 67.4831 408.176 67.3311 407.829 67.6781C407.481 68.0251 406.256 67.6501 405.106 66.8451C403.956 66.0391 401.858 65.3801 400.443 65.3801C399.029 65.3801 389.342 70.1691 378.916 76.0231ZM407.46 91.9921C385.865 103.472 364.087 117.231 322.46 145.695C288.637 168.823 252.417 194.017 233.96 207.254C217.323 219.187 172.987 250.39 144.46 270.244C102.928 299.15 52.0057 336.066 42.7097 344.009C37.0057 348.883 36.7117 349.489 38.9597 351.737C39.7847 352.562 40.4597 353.719 40.4597 354.309C40.4597 355.951 42.0667 355.613 47.6017 352.808C70.1727 341.371 131.542 301.445 212.46 245.554C288.156 193.271 314.527 174.583 363.46 138.554C414.674 100.845 427.46 90.9441 427.46 88.9921C427.46 87.8441 422.682 86.3911 418.96 86.4061C418.41 86.4081 413.235 88.9221 407.46 91.9921ZM426.46 114.683C404.917 127.002 364.646 153.927 313.96 189.901C249.267 235.816 205.993 265.864 138.205 311.937C119.64 324.556 93.3147 342.449 79.7047 351.7C66.0947 360.951 54.3807 369.084 53.6727 369.773C51.6567 371.735 53.3197 374.263 57.0917 374.971C60.0087 375.518 62.3047 374.706 72.2447 369.611C104.408 353.126 146.35 326.594 237.46 265.099C306.13 218.75 341.367 193.895 384.96 161.056C404.586 146.271 440.151 117.628 440.718 116.149C441.318 114.586 437.373 110.376 435.319 110.387C434.572 110.392 430.585 112.325 426.46 114.683ZM449.451 135.181C444.743 136.639 359.587 195.042 324.46 220.906C267.019 263.198 150.948 340.965 95.1057 374.571C82.9397 381.893 76.7197 385.997 73.7627 388.654C71.8767 390.35 71.7647 390.827 72.9697 392.033C75.5187 394.582 80.7127 393.731 91.9597 388.922C112.49 380.143 138.141 365.301 191.46 331.351C299.902 262.302 382.437 203.915 423.938 166.89C437.319 154.953 453.46 139.256 453.46 138.182C453.46 136.54 451.002 134.701 449.451 135.181ZM453.235 166.78C450.334 168.54 442.335 174.028 435.46 178.975C428.585 183.923 416.21 192.659 407.96 198.388C399.71 204.118 379.91 218.246 363.96 229.783C297.832 277.619 238.658 318.569 202.46 341.547C175.526 358.645 132.798 384.597 120.46 391.352C114.135 394.815 105.185 400.148 100.571 403.202L92.1817 408.756L95.9687 410.067C100.244 411.547 103.296 410.999 114.96 406.657C145.759 395.192 184.819 372.373 266.96 317.86C360.408 255.844 419.999 211.009 457.027 174.857C466.12 165.98 463.556 160.519 453.235 166.78ZM462.544 194.685C460.275 195.838 452.69 201.054 445.689 206.277C298.028 316.432 214.445 372.214 148.46 404.642C126.44 415.463 114.009 423.302 117.009 424.476C120.743 425.937 124.886 425.358 136.388 421.77C162.942 413.485 182.789 403.479 237.96 370.563C302.963 331.781 376.702 280.901 419.46 245.329C438.271 229.68 467.137 202.405 469.742 197.82C470.227 196.966 469.792 195.712 468.597 194.517C466.694 192.614 466.618 192.616 462.544 194.685ZM461.96 229.308C459.21 230.897 454.485 234.344 451.46 236.967C443.385 243.971 387.669 285.407 359.96 305.016C321.353 332.337 287.111 355.44 270.46 365.402C226.207 391.877 182.887 415.701 166.902 422.353C161.785 424.483 154.09 428.593 149.802 431.487L142.005 436.748L144.978 437.543C147.108 438.113 151.358 437.473 159.956 435.287C166.558 433.609 173.535 431.839 175.46 431.355C181.413 429.856 200.418 422.881 211.96 417.957C227.104 411.498 251.836 398.586 271.033 387.118C311.16 363.146 393.466 305.321 425.96 278.273C445.568 261.951 473.609 232.048 471.9 229.283C471.593 228.786 470.506 228.38 469.484 228.38C468.463 228.38 467.477 227.939 467.293 227.399C467.11 226.86 464.71 227.719 461.96 229.308ZM458.261 268.291C455.736 269.892 447.661 276.311 440.315 282.555C412.47 306.226 379.827 330.329 341.026 355.87C278.926 396.746 233.333 422.194 203.148 432.826C191.5 436.929 177.46 444.453 177.46 446.592C177.46 449.594 204.726 444.082 225.46 436.889C273.905 420.082 313.803 397.212 380.46 348.039C412.949 324.073 449.818 291.386 461.729 275.988C465.719 270.831 466.154 269.801 465.213 267.738C464.622 266.441 463.849 265.38 463.495 265.38C463.141 265.38 460.786 266.69 458.261 268.291ZM447.449 308.752C443.88 311.157 437.36 316.445 432.96 320.503C405.679 345.664 368.092 372.589 310.866 407.961C289.931 420.902 265.525 432.616 243.96 440.075C233.344 443.747 226.851 446.951 221.96 450.93L218.96 453.37L221.96 453.358C224.815 453.346 242.45 449.382 254.642 446.012C264.437 443.304 284.926 435.57 299.729 428.993C339.084 411.507 385.008 380.687 421.502 347.271C438.398 331.799 455.46 311.156 455.46 306.184C455.46 303.617 454.719 303.854 447.449 308.752ZM416.858 366.201C413.606 368.303 404.649 374.744 396.953 380.516C365.606 404.023 353.344 411.55 314.46 431.153C286.498 445.249 276.615 450.868 277.762 452.015C278 452.253 282.417 451.447 287.577 450.224C294.635 448.551 300.925 445.976 312.96 439.833C328.878 431.708 356.153 416.315 370.46 407.382C374.585 404.807 379.085 402.125 380.46 401.423C382.655 400.302 382.777 400.324 381.46 401.603C380.635 402.405 375.01 406.807 368.96 411.386C356.473 420.838 354.632 422.423 359.101 419.871C376.956 409.677 416.888 375.342 421.576 366.153C422.634 364.078 423.336 362.38 423.135 362.38C422.934 362.38 420.11 364.1 416.858 366.201Z" fill="white"/>
</svg>
